# xmcd
#
# Track frame offsets: 
#        150
#        13320
#        25970
#        38903
#        52665
#        66408
#        79298
#        92838
#        105555
#        117610
#        130803
#        144008
#        158703
#        174098
#        189595
#        204815
#        219545
#        234468
#        249353
#        263828
#
# Disc length: 3702 seconds
#
# Revision: 2
# Processed by: cddbd v1.5.1PL0 Copyright (c) Steve Scherf et al.
# Submitted via: ExactAudioCopy v0.95b3
#
DISCID=0b0e7414
DTITLE=Fats Waller - Turn On The Heat - Disc 1
DYEAR=1991
DGENRE=Blues
TTITLE0=Blue Black Bottom
TTITLE1=Handful of Keys
TTITLE2=Numb Fumblin'
TTITLE3=Ain't Misbehavin'
TTITLE4=Sweet Savannah Sue
TTITLE5=I've Got A Feeling I'm Falling, Take 2
TTITLE6=I've Got A Feeling I'm Falling, Take 3
TTITLE7=Love Me or Leave Me, Take 1
TTITLE8=Love Me or Leave Me, Take 3
TTITLE9=Gladyse, Take 1
TTITLE10=Gladyse, Take 2
TTITLE11=Valentine Stomp, Take 1
TTITLE12=Valentine Stomp, Take 2
TTITLE13=Waiting At the End Of The Road, Take 1
TTITLE14=Waiting At the End Of The Road, Take 2
TTITLE15=Baby, Oh Where Can You Be?, Take 1
TTITLE16=Baby, Oh Where Can You Be?, Take 2
TTITLE17=Goin' About, Take 1
TTITLE18=Goin' About, Take 2
TTITLE19=My Feelings Are Hurt
EXTD=
EXTT0=
EXTT1=
EXTT2=
EXTT3=
EXTT4=
EXTT5=
EXTT6=
EXTT7=
EXTT8=
EXTT9=
EXTT10=
EXTT11=
EXTT12=
EXTT13=
EXTT14=
EXTT15=
EXTT16=
EXTT17=
EXTT18=
EXTT19=
PLAYORDER=
